<?xml version="1.0" encoding="UTF-8"?>
<svg version="1.1" xmlns="http://www.w3.org/2000/svg" width="273" height="245">
<path d="M0 0 C90.09 0 180.18 0 273 0 C273 80.85 273 161.7 273 245 C182.91 245 92.82 245 0 245 C0 164.15 0 83.3 0 0 Z " fill="#FEFEFE" transform="translate(0,0)"/>
<path d="M0 0 C90.09 0 180.18 0 273 0 C273 80.85 273 161.7 273 245 C182.91 245 92.82 245 0 245 C0 164.15 0 83.3 0 0 Z M54.94140625 32.9921875 C53.75306998 34.34663529 52.59732029 35.73056006 51.48046875 37.14453125 C50 39 50 39 47.4375 41.25 C38.18214406 51.69194003 36.69100137 64.71977453 36.7253418 78.12426758 C36.72023087 79.17627853 36.71511993 80.22828949 36.70985413 81.31217957 C36.69606473 84.75635625 36.69690697 88.2003304 36.69921875 91.64453125 C36.69532578 94.06149875 36.69098988 96.47846557 36.68623352 98.89543152 C36.67879402 103.94959739 36.67904596 109.00369339 36.68432617 114.05786133 C36.69011546 120.50316515 36.67319143 126.9481811 36.6499815 133.39343739 C36.63517886 138.38231552 36.63438137 143.37112538 36.63749123 148.36002159 C36.63698122 150.73483538 36.63180444 153.10965331 36.62167931 155.48444557 C36.41775104 183.33242057 36.41775104 183.33242057 50 207 C50.66 207 51.32 207 52 207 C52 207.66 52 208.32 52 209 C64.26980163 219.39987362 77.37832314 222.3149971 93.12426758 222.2746582 C94.17627853 222.27976913 95.22828949 222.28488007 96.31217957 222.29014587 C99.75635625 222.30393527 103.2003304 222.30309303 106.64453125 222.30078125 C109.06149875 222.30467422 111.47846557 222.30901012 113.89543152 222.31376648 C118.94959739 222.32120598 124.00369339 222.32095404 129.05786133 222.31567383 C135.50316515 222.30988454 141.9481811 222.32680857 148.39343739 222.3500185 C153.38231552 222.36482114 158.37112538 222.36561863 163.36002159 222.36250877 C165.73483538 222.36301878 168.10965331 222.36819556 170.48444557 222.37832069 C189.99982803 222.45132019 208.02565876 222.14257226 223.15625 208.03515625 C231.43244238 198.89978289 237.09486787 186.63377358 237.14044189 174.19628906 C237.14615204 173.25740341 237.15186218 172.31851776 237.15774536 171.35118103 C237.15886322 170.33294754 237.15998108 169.31471405 237.16113281 168.265625 C237.16609772 167.1836232 237.17106262 166.1016214 237.17617798 164.98683167 C237.19077876 161.40788128 237.19759965 157.82897528 237.203125 154.25 C237.20888 151.75480143 237.21463769 149.25960286 237.22039795 146.7644043 C237.22956142 142.19770123 237.23586286 137.6310108 237.2388947 133.06429958 C237.24380411 125.71233644 237.2668537 118.36066384 237.29820633 111.00875854 C237.31690693 105.85092596 237.32204235 100.69314194 237.32357025 95.53527832 C237.32658267 93.07310876 237.33456307 90.61093977 237.34775543 88.14880371 C237.44211983 69.17649988 237.39579839 51.47401548 223.75390625 36.62109375 C211.26992121 25.08244388 197.49126551 21.68277513 180.87573242 21.7253418 C179.82372147 21.72023087 178.77171051 21.71511993 177.68782043 21.70985413 C174.24364375 21.69606473 170.7996696 21.69690697 167.35546875 21.69921875 C164.93850125 21.69532578 162.52153443 21.69098988 160.10456848 21.68623352 C155.05040261 21.67879402 149.99630661 21.67904596 144.94213867 21.68432617 C138.49683485 21.69011546 132.0518189 21.67319143 125.60656261 21.6499815 C120.61768448 21.63517886 115.62887462 21.63438137 110.63997841 21.63749123 C108.26516462 21.63698122 105.89034669 21.63180444 103.51555443 21.62167931 C77.3672339 21.03681417 77.3672339 21.03681417 54.94140625 32.9921875 Z " fill="#FEFEFE" transform="translate(0,0)"/>
<path d="M0 0 C2.17515442 2.76077292 2.97265618 4.83897528 3.5625 8.3125 C2.38212057 16.05054293 -4.60980837 21.90117117 -9.875 27.375 C-23.27980052 40.79900603 -23.27980052 40.79900603 -27.3828125 58.46875 C-26.8551487 63.33617929 -25.38132806 66.48933152 -22 70 C-16.85493625 73.89017015 -11.38276855 74.82246201 -5 74 C1.63640934 71.86119404 5.64179965 68.07499084 9.11572266 62.07202148 C10.07193351 59.8314468 10.25283395 58.27135734 10.2734375 55.84765625 C10.2940625 55.07099609 10.3146875 54.29433594 10.3359375 53.49414062 C10.36191471 51.87705903 10.38018267 50.25983465 10.390625 48.64257812 C10.54381535 43.50644623 11.12023317 40.71752204 15 37 C18.22791555 34.8480563 19.28400809 34.79913557 23 35 C24.14491841 65.13777549 24.14491841 65.13777549 15.9453125 75.62890625 C10.38623959 81.62077896 3.64007977 86.43193441 -4.71484375 87.2734375 C-14.3571883 87.57731745 -22.61457962 85.55469028 -30.4375 79.6875 C-37.91210106 71.84828426 -40.4383883 63.76344922 -40.35913086 53.04052734 C-40.04765377 41.66835554 -34.59592678 35.93841623 -27 28 C-25.49413828 26.3386276 -23.99406347 24.67199047 -22.5 23 C-20.2282871 20.47499507 -17.95564586 17.95086696 -15.6796875 15.4296875 C-14.91914063 14.58664063 -14.15859375 13.74359375 -13.375 12.875 C-12.63894531 12.0603125 -11.90289062 11.245625 -11.14453125 10.40625 C-8.51036929 7.45061473 -5.94937761 4.43589851 -3.41015625 1.3984375 C-2 0 -2 0 0 0 Z " fill="#FEB63D" transform="translate(146,90)"/>
<path d="M0 0 C7.86666426 -0.52539093 15.19212896 2.28907162 21.37890625 7.09765625 C27.45659386 12.91503321 31.60267815 19.02060481 32.21484375 27.55078125 C32.46236162 40.23932893 30.13227779 47.58224818 21.26171875 56.87109375 C20.50761719 57.6496875 19.75351563 58.42828125 18.9765625 59.23046875 C17.84218466 60.51390737 16.71652454 61.80512748 15.6015625 63.10546875 C12.15587695 67.06400052 8.60276292 70.92148268 5.0480957 74.78173828 C1.28798168 78.87214585 -2.396533 83.02177411 -6.0234375 87.23046875 C-9.0234375 86.23046875 -9.0234375 86.23046875 -10.19921875 84.42578125 C-11.68627758 80.46498949 -11.39198182 77.21112048 -10.0234375 73.23046875 C-7.37835983 69.54143581 -4.22746752 66.43449877 -1.0234375 63.23046875 C3.90241986 57.89340938 8.7114902 52.45251492 13.4140625 46.91796875 C14.23777344 45.95246094 15.06148437 44.98695312 15.91015625 43.9921875 C19.92066637 38.63220517 20.8404556 33.78074679 19.9765625 27.23046875 C18.31903938 21.68223269 15.52268829 18.33525763 10.7578125 15.140625 C6.11199949 12.76677756 1.08166172 12.74130419 -4.0234375 13.23046875 C-9.90513053 15.3795489 -13.76621909 18.79498768 -16.640625 24.36328125 C-18.62564945 29.17622533 -18.45840428 33.95746782 -18.46289062 39.08984375 C-18.59339237 44.11191074 -19.43319923 46.69391628 -23.0234375 50.23046875 C-26.08319193 52.23843259 -27.16829636 52.23046875 -31.0234375 52.23046875 C-31.11127225 48.23060945 -31.16410852 44.23100171 -31.2109375 40.23046875 C-31.23607422 39.10511719 -31.26121094 37.97976562 -31.28710938 36.8203125 C-31.38110846 26.10441685 -28.73787538 17.13381366 -21.1328125 9.27734375 C-14.45159269 3.20814407 -8.93609593 1.01781788 0 0 Z " fill="#FEB53C" transform="translate(136.0234375,66.76953125)"/>
<path d="M0 0 C-1.39750048 3.15835107 -3.05198234 5.32272825 -5.5 7.75 C-6.41265625 8.67039062 -6.41265625 8.67039062 -7.34375 9.609375 C-9 11 -9 11 -11 11 C-9.60249952 7.84164893 -7.94801766 5.67727175 -5.5 3.25 C-4.8915625 2.63640625 -4.283125 2.0228125 -3.65625 1.390625 C-2 0 -2 0 0 0 Z " fill="#EDEEF1" transform="translate(57,31)"/>
</svg>
